<svg width="34" height="34" viewBox="0 0 34 34" fill="none" xmlns="http://www.w3.org/2000/svg">
<path fill-rule="evenodd" clip-rule="evenodd" d="M15.5939 6.21605C13.316 6.21605 11.1313 7.12096 9.52054 8.73172C7.90978 10.3425 7.00487 12.5271 7.00487 14.8051H5.09619C5.09619 12.0209 6.2022 9.35079 8.1709 7.38209C10.1396 5.41338 12.8097 4.30737 15.5939 4.30737C18.3781 4.30737 21.0482 5.41338 23.0169 7.38209C24.9856 9.35079 26.0916 12.0209 26.0916 14.8051H24.183C24.183 12.5271 23.278 10.3425 21.6673 8.73172C20.0565 7.12096 17.8719 6.21605 15.5939 6.21605Z" fill="#323334"/>
<path fill-rule="evenodd" clip-rule="evenodd" d="M3.39735 14.2078C3.4868 14.0963 3.60012 14.0064 3.72896 13.9446C3.85779 13.8829 3.99886 13.8508 4.14174 13.8508H27.0459C27.1887 13.8509 27.3296 13.883 27.4584 13.9448C27.5871 14.0066 27.7004 14.0964 27.7897 14.2078C27.8791 14.3192 27.9424 14.4492 27.9748 14.5882C28.0073 14.7273 28.0081 14.8719 27.9773 15.0113L24.492 30.6949C24.3509 31.3308 23.9971 31.8996 23.4891 32.3074C22.9811 32.7151 22.3492 32.9374 21.6977 32.9376H9.48985C8.83843 32.9374 8.20654 32.7151 7.69851 32.3074C7.19048 31.8996 6.83669 31.3308 6.69555 30.6949L3.2103 15.0113C3.17968 14.8722 3.18059 14.728 3.21295 14.5893C3.24532 14.4506 3.30833 14.3209 3.39735 14.2097V14.2078ZM5.33084 15.7595L8.55842 30.2807C8.60534 30.4928 8.72321 30.6826 8.89257 30.8186C9.06192 30.9546 9.27262 31.0288 9.48985 31.0289H21.6977C21.915 31.0288 22.1257 30.9546 22.295 30.8186C22.4644 30.6826 22.5823 30.4928 22.6292 30.2807L25.8548 15.7595H5.33275H5.33084Z" fill="#323334"/>
<circle cx="23.652" cy="26.6086" r="7.3913" fill="#F2994A"/>
<path d="M22.9189 25.8203H23.6709C24.029 25.8203 24.2943 25.7308 24.4668 25.5518C24.6393 25.3727 24.7256 25.1351 24.7256 24.8389C24.7256 24.5524 24.6393 24.3294 24.4668 24.1699C24.2975 24.0104 24.0632 23.9307 23.7637 23.9307C23.4935 23.9307 23.2673 24.0055 23.085 24.1553C22.9027 24.3018 22.8115 24.4938 22.8115 24.7314H21.4004C21.4004 24.3604 21.4997 24.0283 21.6982 23.7354C21.9001 23.4391 22.18 23.208 22.5381 23.042C22.8994 22.876 23.2965 22.793 23.7295 22.793C24.4814 22.793 25.0706 22.9736 25.4971 23.335C25.9235 23.693 26.1367 24.1878 26.1367 24.8193C26.1367 25.1449 26.0374 25.4443 25.8389 25.7178C25.6403 25.9912 25.3799 26.2012 25.0576 26.3477C25.458 26.4909 25.7559 26.7057 25.9512 26.9922C26.1497 27.2786 26.249 27.6172 26.249 28.0078C26.249 28.6393 26.0179 29.1455 25.5557 29.5264C25.0967 29.9072 24.488 30.0977 23.7295 30.0977C23.0199 30.0977 22.4388 29.9105 21.9863 29.5361C21.5371 29.1618 21.3125 28.667 21.3125 28.0518H22.7236C22.7236 28.3187 22.8229 28.5368 23.0215 28.7061C23.2233 28.8753 23.4707 28.96 23.7637 28.96C24.099 28.96 24.361 28.8721 24.5498 28.6963C24.7419 28.5173 24.8379 28.2812 24.8379 27.9883C24.8379 27.2786 24.4473 26.9238 23.666 26.9238H22.9189V25.8203Z" fill="white"/>
</svg>
