<svg width="8" height="8" viewBox="0 0 8 8" fill="none" xmlns="http://www.w3.org/2000/svg">
<path d="M7.46416 3.40141L7.87085 3.79779C8.04305 3.96563 8.04305 4.23703 7.87085 4.40308L4.31143 7.87412C4.13923 8.04196 3.86077 8.04196 3.6904 7.87412L0.12915 4.40308C-0.0430508 4.23524 -0.0430508 3.96384 0.12915 3.79779L0.535836 3.40141C0.709869 3.23178 0.993817 3.23535 1.16419 3.40855L3.26723 5.56009V0.428524C3.26723 0.19105 3.46325 0 3.70689 0L4.29311 0C4.53675 0 4.73277 0.19105 4.73277 0.428524V5.56009L6.83581 3.40855C7.00618 3.23357 7.29013 3.23 7.46416 3.40141Z" fill="#787878"/>
</svg>
