<svg width="34" height="34" viewBox="0 0 34 34" fill="none" xmlns="http://www.w3.org/2000/svg">
<path fill-rule="evenodd" clip-rule="evenodd" d="M15.5944 6.21605C13.3164 6.21605 11.1318 7.12096 9.52103 8.73172C7.91027 10.3425 7.00536 12.5271 7.00536 14.8051H5.09668C5.09668 12.0209 6.20269 9.35079 8.17139 7.38209C10.1401 5.41338 12.8102 4.30737 15.5944 4.30737C18.3786 4.30737 21.0487 5.41338 23.0174 7.38209C24.9861 9.35079 26.0921 12.0209 26.0921 14.8051H24.1834C24.1834 12.5271 23.2785 10.3425 21.6678 8.73172C20.057 7.12096 17.8724 6.21605 15.5944 6.21605Z" fill="#323334"/>
<path fill-rule="evenodd" clip-rule="evenodd" d="M3.39784 14.2078C3.48729 14.0963 3.60061 14.0064 3.72944 13.9446C3.85828 13.8829 3.99935 13.8508 4.14223 13.8508H27.0463C27.1891 13.8509 27.3301 13.883 27.4589 13.9448C27.5876 14.0066 27.7008 14.0964 27.7902 14.2078C27.8796 14.3192 27.9429 14.4492 27.9753 14.5882C28.0078 14.7273 28.0086 14.8719 27.9778 15.0113L24.4925 30.6949C24.3514 31.3308 23.9976 31.8996 23.4896 32.3074C22.9815 32.7151 22.3497 32.9374 21.6982 32.9376H9.49034C8.83892 32.9374 8.20703 32.7151 7.699 32.3074C7.19097 31.8996 6.83718 31.3308 6.69604 30.6949L3.21079 15.0113C3.18017 14.8722 3.18107 14.728 3.21344 14.5893C3.24581 14.4506 3.30882 14.3209 3.39784 14.2097V14.2078ZM5.33133 15.7595L8.5589 30.2807C8.60583 30.4928 8.7237 30.6826 8.89306 30.8186C9.06241 30.9546 9.27311 31.0288 9.49034 31.0289H21.6982C21.9155 31.0288 22.1262 30.9546 22.2955 30.8186C22.4649 30.6826 22.5827 30.4928 22.6297 30.2807L25.8553 15.7595H5.33324H5.33133Z" fill="#323334"/>
</svg>
